# xmcd
#
# Track frame offsets:
#	150
#	19026
#	39108
#	53143
#	65408
#	85815
#	96853
#	114472
#	127686
#	140488
#	155869
#	172678
#	185003
#	207524
#	223235
#
# Disc length: 3160 seconds
#
# Revision: 0
# Processed by: cddbd v1.4PL0 Copyright (c) Steve Scherf et al.
# Submitted via: audiograbber 1.81.02
#
DISCID=cd0c560f
DTITLE=Ron Hedland - Someday ...
DYEAR=1998
DGENRE=Blues
TTITLE0=Someday
TTITLE1=Angry
TTITLE2=Blank Piece Of Paper
TTITLE3=Love For The Last Time
TTITLE4=Mashed Potatoes and Butterscotch Socks
TTITLE5=Maneater
TTITLE6=Billie
TTITLE7=Testin'
TTITLE8=Postcard
TTITLE9=Problems
TTITLE10=She's Just Looking For Love
TTITLE11=Vampire Song
TTITLE12=Rainy Night In Georgia
TTITLE13=Dabblin' With Addiction
TTITLE14='Til The Bitter End
EXTD=
EXTT0=
EXTT1=
EXTT2=
EXTT3=
EXTT4=
EXTT5=
EXTT6=
EXTT7=
EXTT8=
EXTT9=
EXTT10=
EXTT11=
EXTT12=
EXTT13=
EXTT14=
PLAYORDER=
